<?xml version="1.0" encoding="UTF-8" standalone="no"?>
<!-- Created with Inkscape (http://www.inkscape.org/) -->

<svg
   xmlns:dc="http://purl.org/dc/elements/1.1/"
   xmlns:cc="http://creativecommons.org/ns#"
   xmlns:rdf="http://www.w3.org/1999/02/22-rdf-syntax-ns#"
   xmlns:svg="http://www.w3.org/2000/svg"
   xmlns="http://www.w3.org/2000/svg"
   xmlns:sodipodi="http://sodipodi.sourceforge.net/DTD/sodipodi-0.dtd"
   xmlns:inkscape="http://www.inkscape.org/namespaces/inkscape"
   version="1.1"
   id="svg3986"
   xml:space="preserve"
   width="64"
   height="64"
   viewBox="0 0 64 63.999998"
   sodipodi:docname="baloon.svg"
   inkscape:version="0.92.4 (5da689c313, 2019-01-14)"
   inkscape:export-filename="C:\Users\Nader\Google Drive\flymeuae.com\Logo\favicon\favicon-24.png"
   inkscape:export-xdpi="48.000004"
   inkscape:export-ydpi="48.000004"><metadata
     id="metadata3992"><rdf:RDF><cc:Work
         rdf:about=""><dc:format>image/svg+xml</dc:format><dc:type
           rdf:resource="http://purl.org/dc/dcmitype/StillImage" /><dc:title></dc:title></cc:Work></rdf:RDF></metadata><defs
     id="defs3990"><clipPath
       clipPathUnits="userSpaceOnUse"
       id="clipPath4002"><path
         d="M 0,123.824 H 436.006 V 0 H 0 Z"
         id="path4000"
         inkscape:connector-curvature="0" /></clipPath></defs><sodipodi:namedview
     pagecolor="#ffffff"
     bordercolor="#666666"
     borderopacity="1"
     objecttolerance="10"
     gridtolerance="10"
     guidetolerance="10"
     inkscape:pageopacity="0"
     inkscape:pageshadow="2"
     inkscape:window-width="2560"
     inkscape:window-height="1361"
     id="namedview3988"
     showgrid="false"
     inkscape:zoom="4.1129023"
     inkscape:cx="113.53983"
     inkscape:cy="37.08345"
     inkscape:window-x="-9"
     inkscape:window-y="-9"
     inkscape:window-maximized="1"
     inkscape:current-layer="g3998"
     borderlayer="false"
     fit-margin-top="4.1"
     fit-margin-left="5"
     fit-margin-right="5"
     fit-margin-bottom="5"
     inkscape:pagecheckerboard="false"
     showborder="true"><sodipodi:guide
       position="-75.815187,-18.711282"
       orientation="0,581.34131"
       id="guide84"
       inkscape:locked="false" /><sodipodi:guide
       position="505.5261,-18.711282"
       orientation="-165.09866,0"
       id="guide86"
       inkscape:locked="false" /><sodipodi:guide
       position="505.5261,146.38739"
       orientation="0,-581.34131"
       id="guide88"
       inkscape:locked="false" /><sodipodi:guide
       position="-75.815187,146.38739"
       orientation="165.09866,0"
       id="guide90"
       inkscape:locked="false" /><sodipodi:guide
       position="-75.815187,-18.711282"
       orientation="0,581.34131"
       id="guide92"
       inkscape:locked="false" /><sodipodi:guide
       position="203.06331,68.818147"
       orientation="-165.09866,0"
       id="guide94"
       inkscape:locked="false" /><sodipodi:guide
       position="320.01236,96.049526"
       orientation="0,-581.34131"
       id="guide96"
       inkscape:locked="false" /><sodipodi:guide
       position="-75.815187,146.38739"
       orientation="165.09866,0"
       id="guide98"
       inkscape:locked="false" /></sodipodi:namedview><g
     id="g3994"
     inkscape:groupmode="layer"
     inkscape:label="Flyme Logo - Rect"
     transform="matrix(1.3333333,0,0,-1.3333333,-75.815186,82.711285)"><g
       clip-path="url(#clipPath4002)"
       id="g3998"
       transform="matrix(0.43385083,0,0,0.43385083,1.603108,8.943515)"><g
         id="g34"
         transform="matrix(1.2302469,0,0,1.2302469,-306.85295,-27.192249)"><g
           id="g4004"
           transform="translate(396.40173,34.245864)"><path
             d="M 0,0 C 6.803,0 3.643,3.871 0,7.243 -3.643,3.871 -6.803,0 0,0 M 0,85.68 C -23.915,85.68 -46.793,49.282 -3.93,10.71 -2.924,9.805 -1.425,8.562 0,7.243 1.425,8.562 2.924,9.805 3.93,10.71 46.793,49.282 23.915,85.68 0,85.68"
             style="fill:#f89520;fill-opacity:1;fill-rule:evenodd;stroke:none"
             id="path4006"
             inkscape:connector-curvature="0" /></g><g
           id="g4012"
           transform="translate(400.10553,99.164562)"><path
             d="M 0,0 C 2.142,-0.485 4.271,0.858 4.757,2.999 5.242,5.141 3.899,7.271 1.757,7.756 -0.384,8.241 -2.514,6.898 -2.999,4.757 -3.485,2.615 -2.142,0.485 0,0 M 16.366,4.443 C 1.171,-7.285 -5.947,-6.049 -11.769,3.671 c 2.37,-10.568 -0.039,-22.309 -14.055,-31.044 15.058,7.245 25.242,6.818 31.968,-8.873 -3.978,16.197 2.697,26.847 10.222,40.689"
             style="fill:#0d73ba;fill-opacity:1;fill-rule:nonzero;stroke:none"
             id="path4014"
             inkscape:connector-curvature="0" /></g></g></g></g></svg>