<?xml version="1.0" encoding="UTF-8" standalone="no"?>
<!-- Created with Inkscape (http://www.inkscape.org/) -->

<svg
   xmlns:dc="http://purl.org/dc/elements/1.1/"
   xmlns:cc="http://creativecommons.org/ns#"
   xmlns:rdf="http://www.w3.org/1999/02/22-rdf-syntax-ns#"
   xmlns:svg="http://www.w3.org/2000/svg"
   xmlns="http://www.w3.org/2000/svg"
   xmlns:sodipodi="http://sodipodi.sourceforge.net/DTD/sodipodi-0.dtd"
   xmlns:inkscape="http://www.inkscape.org/namespaces/inkscape"
   version="1.1"
   id="svg3986"
   xml:space="preserve"
   width="151.1111"
   height="69.019447"
   viewBox="0 0 151.1111 69.019446"
   sodipodi:docname="Flyme Logo AR.svg"
   inkscape:version="0.92.4 (5da689c313, 2019-01-14)"
   inkscape:export-filename="C:\Users\Nader\Google Drive\flymeuae.com\Logo\PNG\flyme-logo-ar-109x50.png"
   inkscape:export-xdpi="69.247063"
   inkscape:export-ydpi="69.247063"><metadata
     id="metadata3992"><rdf:RDF><cc:Work
         rdf:about=""><dc:format>image/svg+xml</dc:format><dc:type
           rdf:resource="http://purl.org/dc/dcmitype/StillImage" /><dc:title /></cc:Work></rdf:RDF></metadata><defs
     id="defs3990"><clipPath
       clipPathUnits="userSpaceOnUse"
       id="clipPath4002"><path
         d="M 0,123.824 H 436.006 V 0 H 0 Z"
         id="path4000"
         inkscape:connector-curvature="0" /></clipPath></defs><sodipodi:namedview
     pagecolor="#ffffff"
     bordercolor="#666666"
     borderopacity="1"
     objecttolerance="10"
     gridtolerance="10"
     guidetolerance="10"
     inkscape:pageopacity="0"
     inkscape:pageshadow="2"
     inkscape:window-width="2560"
     inkscape:window-height="1361"
     id="namedview3988"
     showgrid="false"
     inkscape:zoom="4.1129023"
     inkscape:cx="90.767674"
     inkscape:cy="39.731933"
     inkscape:window-x="-9"
     inkscape:window-y="-9"
     inkscape:window-maximized="1"
     inkscape:current-layer="g3998"
     borderlayer="false"
     fit-margin-top="5"
     fit-margin-left="5"
     fit-margin-right="5"
     fit-margin-bottom="5"><sodipodi:guide
       position="-98.587342,-16.062799"
       orientation="0,581.34131"
       id="guide84"
       inkscape:locked="false" /><sodipodi:guide
       position="482.75396,-16.062799"
       orientation="-165.09866,0"
       id="guide86"
       inkscape:locked="false" /><sodipodi:guide
       position="482.75396,149.03587"
       orientation="0,-581.34131"
       id="guide88"
       inkscape:locked="false" /><sodipodi:guide
       position="-98.587342,149.03587"
       orientation="165.09866,0"
       id="guide90"
       inkscape:locked="false" /><sodipodi:guide
       position="-98.587342,-16.062799"
       orientation="0,581.34131"
       id="guide92"
       inkscape:locked="false" /><sodipodi:guide
       position="180.29115,71.466631"
       orientation="-165.09866,0"
       id="guide94"
       inkscape:locked="false" /><sodipodi:guide
       position="297.2402,98.69801"
       orientation="0,-581.34131"
       id="guide96"
       inkscape:locked="false" /><sodipodi:guide
       position="-98.587342,149.03587"
       orientation="165.09866,0"
       id="guide98"
       inkscape:locked="false" /></sodipodi:namedview><g
     id="g3994"
     inkscape:groupmode="layer"
     inkscape:label="Flyme Logo - Rect"
     transform="matrix(1.3333333,0,0,-1.3333333,-98.587342,85.082245)"><g
       clip-path="url(#clipPath4002)"
       id="g3998"
       transform="matrix(0.43385083,0,0,0.43385083,1.603108,8.943515)"><g
         transform="translate(391.35799,32.1443)"
         id="g4004"
         inkscape:export-filename="C:\Users\Nader\Google Drive\flymeuae.com\Logo\PNG\flyme-logo-ar-120x50.png"
         inkscape:export-xdpi="81.329124"
         inkscape:export-ydpi="81.329124"><path
           inkscape:connector-curvature="0"
           id="path4006"
           style="fill:#f89520;fill-opacity:1;fill-rule:evenodd;stroke:none"
           d="M 0,0 C 6.803,0 3.643,3.871 0,7.243 -3.643,3.871 -6.803,0 0,0 M 0,85.68 C -23.915,85.68 -46.793,49.282 -3.93,10.71 -2.924,9.805 -1.425,8.562 0,7.243 1.425,8.562 2.924,9.805 3.93,10.71 46.793,49.282 23.915,85.68 0,85.68" /></g><g
         transform="translate(395.06179,97.063)"
         id="g4012"
         inkscape:export-filename="C:\Users\Nader\Google Drive\flymeuae.com\Logo\PNG\flyme-logo-ar-120x50.png"
         inkscape:export-xdpi="81.329124"
         inkscape:export-ydpi="81.329124"><path
           inkscape:connector-curvature="0"
           id="path4014"
           style="fill:#0d73ba;fill-opacity:1;fill-rule:nonzero;stroke:none"
           d="M 0,0 C 2.142,-0.485 4.271,0.858 4.757,2.999 5.242,5.141 3.899,7.271 1.757,7.756 -0.384,8.241 -2.514,6.898 -2.999,4.757 -3.485,2.615 -2.142,0.485 0,0 M 16.366,4.443 C 1.171,-7.285 -5.947,-6.049 -11.769,3.671 c 2.37,-10.568 -0.039,-22.309 -14.055,-31.044 15.058,7.245 25.242,6.818 31.968,-8.873 -3.978,16.197 2.697,26.847 10.222,40.689" /></g><g
         transform="translate(201.19487,17.4141)"
         id="g4020"
         inkscape:export-filename="C:\Users\Nader\Google Drive\flymeuae.com\Logo\PNG\flyme-logo-ar-120x50.png"
         inkscape:export-xdpi="81.329124"
         inkscape:export-ydpi="81.329124"><path
           inkscape:connector-curvature="0"
           id="path4022"
           style="fill:#f89520;fill-opacity:1;fill-rule:nonzero;stroke:none"
           d="m 0,0 c -0.77,-1.078 -1.703,-1.617 -2.797,-1.617 -1.13,0 -2.071,0.539 -2.824,1.617 -0.753,1.055 -1.129,2.368 -1.129,3.938 0,1.523 0.376,2.824 1.129,3.902 0.77,1.078 1.711,1.617 2.824,1.617 C -1.703,9.457 -0.77,8.918 0,7.84 0.77,6.762 1.155,5.461 1.155,3.938 1.155,2.391 0.77,1.078 0,0 m -9.342,0 c -0.77,-1.078 -1.711,-1.617 -2.823,-1.617 -1.095,0 -2.027,0.539 -2.797,1.617 -0.753,1.078 -1.129,2.391 -1.129,3.938 0,1.523 0.376,2.824 1.129,3.902 0.77,1.078 1.702,1.617 2.797,1.617 1.112,0 2.053,-0.539 2.823,-1.617 0.753,-1.078 1.13,-2.379 1.13,-3.902 0,-1.547 -0.377,-2.86 -1.13,-3.938 m 3.439,14.73 c -13.277,0 -19.915,7.195 -19.915,21.586 0,3.633 0.401,7.243 1.206,10.829 l 8.88,1.933 c -1.113,-3.469 -1.668,-7.336 -1.668,-11.601 0,-4.875 0.915,-8.38 2.746,-10.512 1.899,-2.203 5.098,-3.305 9.598,-3.305 h 2.952 v 24.539 c 3.387,0.914 7.134,1.371 11.24,1.371 4.517,0 7.768,-1.441 9.753,-4.324 1.728,-2.555 2.592,-6.457 2.592,-11.707 V 23.66 h 3.901 V 14.73 H 13.499 v 17.719 c 0,3.094 -0.333,5.226 -1,6.399 -0.685,1.195 -1.968,1.793 -3.85,1.793 -0.941,0 -1.865,-0.118 -2.772,-0.352 V 14.73 Z" /></g><g
         transform="translate(241.51867,48.9844)"
         id="g4024"
         inkscape:export-filename="C:\Users\Nader\Google Drive\flymeuae.com\Logo\PNG\flyme-logo-ar-120x50.png"
         inkscape:export-xdpi="81.329124"
         inkscape:export-ydpi="81.329124"><path
           inkscape:connector-curvature="0"
           id="path4026"
           style="fill:#f89520;fill-opacity:1;fill-rule:nonzero;stroke:none"
           d="M 0,0 C 0,6.047 -1.575,9.07 -4.723,9.07 -6.365,9.07 -7.666,8.273 -8.624,6.68 -9.53,5.156 -9.983,3.199 -9.983,0.809 c 0,-5.813 2.258,-8.719 6.775,-8.719 H 0 Z m -20.968,-16.84 v 8.93 h 2.259 c 1.197,0 2.147,-0.188 2.848,-0.563 -1.539,1.805 -2.309,4.828 -2.309,9.071 0,4.851 1.154,8.882 3.464,12.093 2.567,3.539 6.065,5.309 10.497,5.309 4.174,0 7.314,-1.559 9.418,-4.676 1.934,-2.883 2.9,-6.914 2.9,-12.094 v -18.07 z" /></g><g
         transform="translate(280.40977,17.4141)"
         id="g4028"
         inkscape:export-filename="C:\Users\Nader\Google Drive\flymeuae.com\Logo\PNG\flyme-logo-ar-120x50.png"
         inkscape:export-xdpi="81.329124"
         inkscape:export-ydpi="81.329124"><path
           inkscape:connector-curvature="0"
           id="path4030"
           style="fill:#0d73ba;fill-opacity:1;fill-rule:nonzero;stroke:none"
           d="m 0,0 c -0.77,-1.078 -1.703,-1.617 -2.797,-1.617 -1.13,0 -2.071,0.539 -2.824,1.617 -0.753,1.055 -1.129,2.368 -1.129,3.938 0,1.523 0.376,2.824 1.129,3.902 0.77,1.078 1.711,1.617 2.824,1.617 C -1.703,9.457 -0.77,8.918 0,7.84 0.77,6.762 1.155,5.461 1.155,3.938 1.155,2.391 0.77,1.078 0,0 m -9.342,0 c -0.77,-1.078 -1.711,-1.617 -2.823,-1.617 -1.095,0 -2.027,0.539 -2.797,1.617 -0.753,1.078 -1.129,2.391 -1.129,3.938 0,1.523 0.376,2.824 1.129,3.902 0.77,1.078 1.702,1.617 2.797,1.617 1.112,0 2.053,-0.539 2.823,-1.617 0.753,-1.078 1.13,-2.379 1.13,-3.902 0,-1.547 -0.377,-2.86 -1.13,-3.938 m 3.439,14.73 c -13.277,0 -19.915,7.195 -19.915,21.586 0,3.633 0.401,7.243 1.206,10.829 l 8.88,1.933 c -1.113,-3.469 -1.668,-7.336 -1.668,-11.601 0,-4.875 0.915,-8.38 2.746,-10.512 1.899,-2.203 5.098,-3.305 9.598,-3.305 h 2.952 v 24.539 c 3.387,0.914 7.134,1.371 11.24,1.371 4.517,0 7.767,-1.441 9.753,-4.324 1.727,-2.555 2.591,-6.457 2.591,-11.707 v -10.16 h -7.981 v 9.07 c 0,3.094 -0.334,5.226 -1.001,6.399 -0.685,1.195 -1.968,1.793 -3.849,1.793 -0.941,0 -1.865,-0.118 -2.772,-0.352 V 14.73 Z" /></g><g
         transform="translate(303.07577,32.1445)"
         id="g4032"
         inkscape:export-filename="C:\Users\Nader\Google Drive\flymeuae.com\Logo\PNG\flyme-logo-ar-120x50.png"
         inkscape:export-xdpi="81.329124"
         inkscape:export-ydpi="81.329124"><path
           inkscape:connector-curvature="0"
           id="path4034"
           style="fill:#0d73ba;fill-opacity:1;fill-rule:nonzero;stroke:none"
           d="m 0,0 v 8.93 h 16.194 v 41.836 h 8.289 V 8.93 h 4.954 V 0 Z M 13.294,13.676 H 4.825 l -6.981,36.14 8.315,1.582 z" /></g><g
         transform="translate(339.54937,72.8906)"
         id="g4036"
         inkscape:export-filename="C:\Users\Nader\Google Drive\flymeuae.com\Logo\PNG\flyme-logo-ar-120x50.png"
         inkscape:export-xdpi="81.329124"
         inkscape:export-ydpi="81.329124"><path
           inkscape:connector-curvature="0"
           id="path4038"
           style="fill:#0d73ba;fill-opacity:1;fill-rule:nonzero;stroke:none"
           d="m 0,0 c -0.805,1.102 -1.206,2.449 -1.206,4.043 0,1.547 0.401,2.871 1.206,3.973 0.804,1.101 1.771,1.652 2.9,1.652 1.146,0 2.121,-0.54 2.926,-1.617 C 6.63,6.949 7.032,5.613 7.032,4.043 7.032,2.449 6.63,1.102 5.826,0 5.021,-1.102 4.046,-1.652 2.9,-1.652 1.754,-1.652 0.787,-1.102 0,0 m 7.828,-23.906 c 0,6.047 -1.575,9.07 -4.723,9.07 -1.642,0 -2.943,-0.797 -3.901,-2.391 -0.906,-1.523 -1.359,-3.48 -1.359,-5.871 0,-5.813 2.258,-8.718 6.775,-8.718 h 3.208 z m -20.968,-16.84 v 8.93 h 2.258 c 1.198,0 2.148,-0.188 2.849,-0.563 -1.539,1.805 -2.31,4.828 -2.31,9.07 0,4.852 1.155,8.883 3.465,12.094 2.566,3.539 6.066,5.309 10.497,5.309 4.174,0 7.314,-1.559 9.418,-4.676 1.934,-2.883 2.901,-6.914 2.901,-12.094 v -18.07 z" /></g></g></g></svg>