<?xml version="1.0" encoding="UTF-8" standalone="no"?>
<!-- Created with Inkscape (http://www.inkscape.org/) -->

<svg
   xmlns:dc="http://purl.org/dc/elements/1.1/"
   xmlns:cc="http://creativecommons.org/ns#"
   xmlns:rdf="http://www.w3.org/1999/02/22-rdf-syntax-ns#"
   xmlns:svg="http://www.w3.org/2000/svg"
   xmlns="http://www.w3.org/2000/svg"
   xmlns:sodipodi="http://sodipodi.sourceforge.net/DTD/sodipodi-0.dtd"
   xmlns:inkscape="http://www.inkscape.org/namespaces/inkscape"
   version="1.1"
   id="svg3986"
   xml:space="preserve"
   width="152.11684"
   height="59.563351"
   viewBox="0 0 152.11684 59.56335"
   sodipodi:docname="Flyme Logo EN.svg"
   inkscape:version="0.92.4 (5da689c313, 2019-01-14)"
   inkscape:export-filename="C:\Users\Nader\Google Drive\flymeuae.com\Logo\PNG\flyme-logo-en-255x100.png"
   inkscape:export-xdpi="160.92892"
   inkscape:export-ydpi="160.92892"><metadata
     id="metadata3992"><rdf:RDF><cc:Work
         rdf:about=""><dc:format>image/svg+xml</dc:format><dc:type
           rdf:resource="http://purl.org/dc/dcmitype/StillImage" /><dc:title /></cc:Work></rdf:RDF></metadata><defs
     id="defs3990"><clipPath
       clipPathUnits="userSpaceOnUse"
       id="clipPath4002"><path
         d="M 0,123.824 H 436.006 V 0 H 0 Z"
         id="path4000"
         inkscape:connector-curvature="0" /></clipPath></defs><sodipodi:namedview
     pagecolor="#ffffff"
     bordercolor="#666666"
     borderopacity="1"
     objecttolerance="10"
     gridtolerance="10"
     guidetolerance="10"
     inkscape:pageopacity="0"
     inkscape:pageshadow="2"
     inkscape:window-width="2560"
     inkscape:window-height="1361"
     id="namedview3988"
     showgrid="false"
     inkscape:zoom="5.8165222"
     inkscape:cx="88.622025"
     inkscape:cy="12.136275"
     inkscape:window-x="-9"
     inkscape:window-y="-9"
     inkscape:window-maximized="1"
     inkscape:current-layer="g3998"
     borderlayer="false"
     fit-margin-top="5"
     fit-margin-left="5"
     fit-margin-right="5"
     fit-margin-bottom="5"><sodipodi:guide
       position="-3.3524558,-25.518894"
       orientation="0,581.34131"
       id="guide84"
       inkscape:locked="false" /><sodipodi:guide
       position="577.98884,-25.518894"
       orientation="-165.09866,0"
       id="guide86"
       inkscape:locked="false" /><sodipodi:guide
       position="577.98884,139.57977"
       orientation="0,-581.34131"
       id="guide88"
       inkscape:locked="false" /><sodipodi:guide
       position="-3.3524558,139.57977"
       orientation="165.09866,0"
       id="guide90"
       inkscape:locked="false" /><sodipodi:guide
       position="-3.3524558,-25.518894"
       orientation="0,581.34131"
       id="guide92"
       inkscape:locked="false" /><sodipodi:guide
       position="275.52603,62.010537"
       orientation="-165.09866,0"
       id="guide94"
       inkscape:locked="false" /><sodipodi:guide
       position="392.47508,89.241916"
       orientation="0,-581.34131"
       id="guide96"
       inkscape:locked="false" /><sodipodi:guide
       position="-3.3524558,139.57977"
       orientation="165.09866,0"
       id="guide98"
       inkscape:locked="false" /></sodipodi:namedview><g
     id="g3994"
     inkscape:groupmode="layer"
     inkscape:label="Flyme Logo - Rect"
     transform="matrix(1.3333333,0,0,-1.3333333,-3.3524559,85.082245)"><g
       clip-path="url(#clipPath4002)"
       id="g3998"
       transform="matrix(0.43385083,0,0,0.43385083,1.603108,8.943515)"><g
         transform="translate(38.70217,32.1443)"
         id="g4004"
         inkscape:export-filename="C:\Users\Nader\Google Drive\flymeuae.com\Logo\PNG\flyme-logo-ar-143x50.png"
         inkscape:export-xdpi="96.596581"
         inkscape:export-ydpi="96.596581"><path
           inkscape:connector-curvature="0"
           id="path4006"
           style="fill:#f89520;fill-opacity:1;fill-rule:evenodd;stroke:none"
           d="M 0,0 C 6.803,0 3.643,3.871 0,7.243 -3.643,3.871 -6.803,0 0,0 M 0,85.68 C -23.915,85.68 -46.793,49.282 -3.93,10.71 -2.924,9.805 -1.425,8.562 0,7.243 1.425,8.562 2.924,9.805 3.93,10.71 46.793,49.282 23.915,85.68 0,85.68" /></g><g
         transform="translate(42.40597,97.063)"
         id="g4016"
         inkscape:export-filename="C:\Users\Nader\Google Drive\flymeuae.com\Logo\PNG\flyme-logo-ar-143x50.png"
         inkscape:export-xdpi="96.596581"
         inkscape:export-ydpi="96.596581"><path
           inkscape:connector-curvature="0"
           id="path4018"
           style="fill:#0d73ba;fill-opacity:1;fill-rule:nonzero;stroke:none"
           d="M 0,0 C 2.142,-0.485 4.271,0.858 4.757,2.999 5.242,5.141 3.899,7.271 1.757,7.756 -0.384,8.241 -2.514,6.898 -2.999,4.757 -3.485,2.615 -2.142,0.485 0,0 M 16.366,4.443 C 1.171,-7.285 -5.947,-6.049 -11.769,3.671 c 2.37,-10.568 -0.039,-22.309 -14.055,-31.044 15.058,7.245 25.242,6.818 31.968,-8.873 -3.978,16.197 2.697,26.847 10.222,40.689" /></g><g
         transform="translate(21.8516,57.5269)"
         id="g4040"
         inkscape:export-filename="C:\Users\Nader\Google Drive\flymeuae.com\Logo\PNG\flyme-logo-ar-143x50.png"
         inkscape:export-xdpi="96.596581"
         inkscape:export-ydpi="96.596581"><path
           inkscape:connector-curvature="0"
           id="path4042"
           style="fill:#0d73ba;fill-opacity:1;fill-rule:nonzero;stroke:none"
           d="M 72.605609,0 V -12.867 H 67.859608 V -25.383 H 53.585607 V 4.395 c 0,5.601 1.728001,10.236 5.186001,13.904 3.457,3.668 7.81,5.502 13.061,5.502 5.788001,0 10.628002,-2.496 14.519002,-7.489 L 74.644609,7.77 c -0.656,1.828 -1.816,2.742 -3.480001,2.742 -2.203999,0 -3.305,-1.524 -3.305,-4.571 V 0 Z" /></g><g
         transform="translate(110.10171,80.1323)"
         id="g4044"
         inkscape:export-filename="C:\Users\Nader\Google Drive\flymeuae.com\Logo\PNG\flyme-logo-ar-143x50.png"
         inkscape:export-xdpi="96.596581"
         inkscape:export-ydpi="96.596581"><path
           inkscape:connector-curvature="0"
           id="path4046"
           style="fill:#0d73ba;fill-opacity:1;fill-rule:nonzero;stroke:none"
           d="m 0,0 h 14.273 v -28.512 c 0,-2.226 0.357,-3.709 1.073,-4.447 0.715,-0.738 2.127,-1.107 4.236,-1.107 h 0.738 v -13.922 h -3.797 c -5.203,0 -9.258,1.517 -12.164,4.552 C 1.453,-40.4 0,-36.188 0,-30.797 Z" /></g><g
         transform="translate(169.05871,80.1323)"
         id="g4048"
         inkscape:export-filename="C:\Users\Nader\Google Drive\flymeuae.com\Logo\PNG\flyme-logo-ar-143x50.png"
         inkscape:export-xdpi="96.596581"
         inkscape:export-ydpi="96.596581"><path
           inkscape:connector-curvature="0"
           id="path4050"
           style="fill:#0d73ba;fill-opacity:1;fill-rule:nonzero;stroke:none"
           d="M 0,0 -13.57,-21.34 V -47.988 H -27.844 V -21.34 L -41.52,0 h 14.485 l 6.187,-9.879 6.645,9.879 z" /></g><g
         transform="translate(170.46501,32.144)"
         id="g4052"
         inkscape:export-filename="C:\Users\Nader\Google Drive\flymeuae.com\Logo\PNG\flyme-logo-ar-143x50.png"
         inkscape:export-xdpi="96.596581"
         inkscape:export-ydpi="96.596581"><path
           inkscape:connector-curvature="0"
           id="path4054"
           style="fill:#f89520;fill-opacity:1;fill-rule:nonzero;stroke:none"
           d="m 0,0 v 34.594 c 0,4.289 1.301,7.793 3.902,10.511 2.602,2.719 5.977,4.079 10.125,4.079 4.922,0 8.707,-2.263 11.356,-6.786 1.617,2.438 3.351,4.178 5.203,5.221 1.852,1.043 4.137,1.565 6.855,1.565 4.313,0 7.618,-1.36 9.914,-4.079 2.297,-2.718 3.446,-6.632 3.446,-11.742 V 0 H 36.527 v 31.219 c 0,1.547 -0.123,2.572 -0.369,3.076 -0.246,0.504 -0.744,0.756 -1.494,0.756 -1.406,0 -2.109,-1.196 -2.109,-3.586 V 0 H 18.281 v 31.219 c 0,1.523 -0.129,2.543 -0.386,3.058 -0.258,0.516 -0.762,0.774 -1.512,0.774 -1.406,0 -2.11,-1.278 -2.11,-3.832 V 0 Z" /></g><g
         transform="translate(255.50791,61.4644)"
         id="g4056"
         inkscape:export-filename="C:\Users\Nader\Google Drive\flymeuae.com\Logo\PNG\flyme-logo-ar-143x50.png"
         inkscape:export-xdpi="96.596581"
         inkscape:export-ydpi="96.596581"><path
           inkscape:connector-curvature="0"
           id="path4058"
           style="fill:#f89520;fill-opacity:1;fill-rule:nonzero;stroke:none"
           d="m 0,0 v -10.688 h -9.316 c -1.266,0 -2.163,-0.187 -2.69,-0.562 -0.527,-0.375 -0.791,-1.008 -0.791,-1.898 0,-1.008 0.27,-1.67 0.809,-1.987 0.539,-0.316 1.64,-0.474 3.304,-0.474 H 0.914 V -29.32 h -11.215 c -5.273,0 -9.304,1.259 -12.094,3.779 -2.789,2.52 -4.183,6.158 -4.183,10.916 V 4.184 c 0,4.593 1.318,8.156 3.955,10.687 2.637,2.531 6.346,3.797 11.127,3.797 H 0.914 V 4.887 h -9.105 c -2.461,0 -3.692,-0.797 -3.692,-2.391 0,-0.937 0.293,-1.588 0.879,-1.951 C -10.418,0.182 -9.375,0 -7.875,0 Z" /></g></g></g></svg>